<svg width="22" height="23" viewBox="0 0 22 23" fill="none" xmlns="http://www.w3.org/2000/svg">
<path d="M16.783 16.1684L21.2444 20.6288L19.7705 22.1028L15.3101 17.6413C13.6504 18.9718 11.5861 19.6954 9.459 19.6924C4.28399 19.6924 0.0839844 15.4924 0.0839844 10.3174C0.0839844 5.14238 4.28399 0.942383 9.459 0.942383C14.634 0.942383 18.834 5.14238 18.834 10.3174C18.8371 12.4445 18.1134 14.5088 16.783 16.1684ZM14.6934 15.3955C16.0154 14.036 16.7537 12.2137 16.7507 10.3174C16.7507 6.28822 13.4871 3.02572 9.459 3.02572C5.42983 3.02572 2.16732 6.28822 2.16732 10.3174C2.16732 14.3455 5.42983 17.6091 9.459 17.6091C11.3553 17.612 13.1776 16.8738 14.5371 15.5518L14.6934 15.3955Z" fill="#C4C4C4"/>
</svg>
